#!OML:ASF F:\VICON\USERDATA\INSTALL\rory3\rory3.ASF
:FULLY-SPECIFIED
:DEGREES
136
root 0.7940309332601205 17.79302624294103 40.0301879089376 -4.20246447686691 -1.3647482110059161 -0.8861525898848581
lfemur 0.683637258227014 -1.6216583063305794 -19.456516120414875
ltibia 52.59595916326782
lfoot -13.9103058488812 -2.0592447132817386
ltoes -1.3445204381876008
rfemur -8.893437781772567 2.601900153962653 22.778141511057008
rtibia 47.84192938106506
rfoot -21.906389396656166 -10.619602339725324
rtoes -5.174372102861523
lowerback 9.845032187493718 -0.12624722194552024 0.37638484824096274
upperback 0.28738680493268887 -0.15756783869479085 1.5024187369198003
thorax -5.378759205020083 -0.05966172191540209 1.5255004648846797
lowerneck -16.52846929685595 -2.8761954112061 -1.438371659701084
upperneck 21.20413684008347 -3.6362718394104614 0.268653605910972
head 9.492353619058814 -1.8054655139785603 -0.15010106915732033
lclavicle -3.616362944072007e-16 5.803562888498298e-16
lhumerus -31.261449888398758 4.725069500184622 81.22455389801539
lradius 21.037881581807696
lwrist 7.543228850541219
lhand -28.537465377641688 18.954624128379645
lfingers 7.12502
lthumb -2.2064882109554316 48.452088580862224
rclavicle -3.616362943591471e-16 5.803562888824499e-16
rhumerus -29.055027065484076 -18.821941593702945 -79.0550391565918
rradius 33.08087165515568
rwrist 3.6092648763172503
rhand -18.042885733918084 20.78907874163277
rfingers 7.12502
rthumb 8.601069757751468 -7.86193254715786
137
root 0.7845836845387472 17.79199555704824 39.83793931518269 -4.080965595714722 -1.4927435452072428 -0.9873890869074142
lfemur 0.7753109141733585 -1.4926798024546564 -19.244528175432638
ltibia 52.50885835224211
lfoot -13.82054672166738 -1.9521033045141587
ltoes -2.077383266457204
rfemur -9.32850393783282 2.7364295983590217 22.904888133968516
rtibia 47.66233552180918
rfoot -21.65398008134874 -10.238101319129001
rtoes -4.726162847684045
lowerback 9.840413490172699 -0.16007122420246872 0.3272270569761657
upperback 0.27713684453858856 -0.18764272993944653 1.5397771470429844
thorax -5.458886504303189 -0.10638310725839778 1.4789312488309947
lowerneck -16.580995939578465 -2.883121606696379 -1.39240060240618
upperneck 21.103368840362705 -3.6574139785320754 0.26969886057757886
head 9.490402377339057 -1.8101692675116483 -0.17663779598205057
lclavicle -3.6163629441272335e-16 5.803562888460187e-16
lhumerus -30.74943817267001 5.257276907339845 81.55023782386482
lradius 21.245495057454157
lwrist 6.934331375184083
lhand -28.450988471324674 19.43094879282651
lfingers 7.12502
lthumb -2.1111074452479457 49.009868207348475
rclavicle -3.6163629435670013e-16 5.803562888839421e-16
rhumerus -28.786116016653473 -18.405665401904226 -79.21738037746148
rradius 33.03367907574483
rwrist 3.499812150442793
rhand -17.963714050229918 20.855634948878528
rfingers 7.12502
rthumb 8.70230359834976 -7.844582766696809
138
root 0.7841267010359253 17.78342495723588 40.23278685164926 -4.220159706447413 -1.7339306743013183 -0.44256607576413187
lfemur 1.4808055736977686 -1.514238037951216 -19.82938971198401
ltibia 51.908563010504125
lfoot -13.78766037258449 -1.9802319627847915
ltoes -3.6982356094108675
rfemur -9.953447122009345 2.809060455538046 22.43867924205722
rtibia 47.7210674609172
rfoot -21.314874902147714 -9.938526955998991
rtoes -3.225541822285103
lowerback 9.852124658200294 -0.1624082904311357 -0.0840321663003667
upperback 0.3004217779146714 -0.23841728290040076 1.5107907937264422
thorax -5.431043684913197 -0.12681308816060938 1.5732648592736698
lowerneck -16.653005881889065 -2.8899910301802345 -1.349055116565314
upperneck 21.097418086764 -3.669192027234471 0.3018086185977982
head 9.510591649627898 -1.8135550173903228 -0.18065968729948426
lclavicle -3.6163629441352533e-16 5.803562888454386e-16
lhumerus -31.155415343097374 4.807369386054667 81.55363145886534
lradius 21.6282409250318
lwrist 6.270271226314571
lhand -28.624702295327538 19.233825170675907
lfingers 7.12502
lthumb -2.2499820314817263 48.81996294280032
rclavicle -3.6163629436005377e-16 5.803562888817057e-16
rhumerus -28.618316283277004 -17.998512494126174 -79.11088725229287
rradius 33.03549903943328
rwrist 3.3818347946515135
rhand -17.94035315452771 20.8203835705318
rfingers 7.12502
rthumb 8.812951447389766 -7.719733940766101
139
root 0.7934201056576873 17.784390159497146 40.782262926538486 -4.134131474933073 -1.8083896687857413 -0.05210097702490968
lfemur 2.051862851021406 -1.6283218138369968 -20.37444168463648
ltibia 51.23893816640207
lfoot -13.777123284851971 -2.1429957162580666
ltoes -6.922558990128149
rfemur -10.641162199092248 2.7517390228718983 22.082924200160996
rtibia 47.57321199604699
rfoot -20.95056111135891 -9.624895353094628
rtoes -2.381578917999666
lowerback 9.812781993924878 -0.20928459902651886 -0.3743943726630292
upperback 0.2660857007243155 -0.3257466587083302 1.4890260568512788
thorax -5.463522014608634 -0.18758773122035344 1.6105103392345104
lowerneck -16.688685548294394 -2.9051346332135544 -1.3365373370322293
upperneck 21.086240616592715 -3.6943444288298304 0.32002508998728924
head 9.52252024823618 -1.820521524901725 -0.1837496820711103
lclavicle -3.6163629441669083e-16 5.803562888431604e-16
lhumerus -30.575642554062355 5.164976148551875 81.75524701800711
lradius 21.89746641311212
lwrist 6.164391658893613
lhand -28.59608121701972 19.495284980583854
lfingers 7.12502
lthumb -2.208035000481615 49.08291820005972
rclavicle -3.6163629436125984e-16 5.803562888807132e-16
rhumerus -28.441226653189855 -17.56328082680459 -78.9598656623716
rradius 33.06748522437762
rwrist 3.25199148412525
rhand -17.90259902042269 20.85018065680214
rfingers 7.12502
rthumb 8.863492638668967 -7.714033085493429
